<svg xmlns="http://www.w3.org/2000/svg" width="90" height="30" fill="none"><path fill="#fff" d="M11.415 29H.78V1.364h10.526c2.843 0 5.299.553 7.368 1.66a11.43 11.43 0 0 1 4.804 4.75c1.133 2.06 1.7 4.529 1.7 7.408 0 2.879-.562 5.353-1.687 7.422a11.574 11.574 0 0 1-4.777 4.75C16.655 28.45 14.222 29 11.415 29Zm-3.13-6.37h2.86c1.367 0 2.532-.22 3.495-.66.971-.441 1.71-1.201 2.213-2.281.513-1.08.77-2.582.77-4.507 0-1.925-.262-3.428-.784-4.507-.512-1.08-1.268-1.84-2.267-2.28-.99-.442-2.204-.662-3.643-.662H8.284V22.63Zm38.313-12.144a3.702 3.702 0 0 0-.553-1.255A3.448 3.448 0 0 0 45.1 8.3c-.369-.261-.8-.455-1.296-.58a5.99 5.99 0 0 0-1.605-.203c-1.26 0-2.335.301-3.225.904-.882.603-1.557 1.471-2.025 2.605-.458 1.133-.688 2.5-.688 4.102 0 1.62.22 3.005.661 4.156.441 1.152 1.098 2.033 1.97 2.645.873.612 1.957.918 3.253.918 1.142 0 2.091-.167 2.847-.5.765-.333 1.336-.805 1.714-1.417.378-.611.566-1.331.566-2.159l1.296.135h-6.315v-5.343h12.252v3.832c0 2.519-.535 4.673-1.605 6.464-1.062 1.78-2.528 3.148-4.4 4.102-1.862.945-3.998 1.417-6.41 1.417-2.69 0-5.05-.571-7.084-1.714-2.033-1.143-3.62-2.77-4.763-4.885-1.134-2.114-1.7-4.628-1.7-7.543 0-2.285.346-4.31 1.038-6.073.702-1.763 1.674-3.252 2.915-4.466a12.319 12.319 0 0 1 4.305-2.767c1.628-.63 3.373-.944 5.236-.944 1.637 0 3.157.234 4.56.702 1.413.458 2.66 1.115 3.739 1.97a10.235 10.235 0 0 1 2.631 3.009 9.572 9.572 0 0 1 1.215 3.819h-7.584Zm11.406-9.122h9.338l6.423 15.653h.324l6.423-15.653h9.338V29h-7.34V13.023h-.216L76.14 28.784h-4.426l-6.153-15.87h-.216V29h-7.341V1.364Z"/></svg>