<svg xmlns="http://www.w3.org/2000/svg" width="103" height="102" fill="none"><path fill="url(#a)" fill-rule="evenodd" d="M.709 51C.709 22.95 23.449.21 51.501.21c28.051 0 50.791 22.74 50.791 50.792 0 28.051-22.74 50.791-50.791 50.791-28.052 0-50.792-22.74-50.792-50.791ZM51.501 9.793c-22.76 0-41.209 18.45-41.209 41.209 0 22.758 18.45 41.208 41.209 41.208 22.758 0 41.208-18.45 41.208-41.208 0-22.76-18.45-41.209-41.208-41.209Zm19.447 27.511a4.792 4.792 0 0 1 0 6.777l-21.81 21.809a4.792 4.792 0 0 1-6.776 0l-7.434-7.434a4.792 4.792 0 1 1 6.777-6.777l4.046 4.046 18.42-18.42a4.792 4.792 0 0 1 6.777 0Z" clip-rule="evenodd"/><defs><linearGradient id="a" x1="-12.132" x2="133.73" y1="15.972" y2="19.043" gradientUnits="userSpaceOnUse"><stop stop-color="#CFE351"/><stop offset=".321" stop-color="#7CE96B"/><stop offset="1" stop-color="#5AEAC7"/></linearGradient></defs></svg>